<svg width="20" height="19" viewBox="0 0 20 19" fill="none" xmlns="http://www.w3.org/2000/svg">
<path d="M8.23201 1.42014L8.23239 1.41983C9.21081 0.634011 10.7844 0.638281 11.7782 1.42991C11.7783 1.43 11.7784 1.4301 11.7785 1.43019L17.7784 6.23004C17.7789 6.23051 17.7795 6.23097 17.7801 6.23144C18.119 6.50836 18.4146 6.94379 18.6058 7.44409C18.7968 7.94403 18.8672 8.4661 18.8014 8.89845L17.6475 15.8036C17.6474 15.8041 17.6473 15.8046 17.6472 15.8051C17.4218 17.0988 16.1609 18.1667 14.8585 18.1667H5.1418C3.81982 18.1667 2.58766 17.1251 2.36227 15.8148C2.36221 15.8144 2.36215 15.8141 2.36209 15.8138L1.20746 8.90425L1.20726 8.90311C1.13345 8.46761 1.19947 7.9446 1.39002 7.44492C1.58055 6.94529 1.87982 6.51032 2.22697 6.23334L2.22784 6.23264L8.23201 1.42014ZM10.0001 16.1875C10.6521 16.1875 11.1876 15.652 11.1876 15V12.25C11.1876 11.598 10.6521 11.0625 10.0001 11.0625C9.34815 11.0625 8.81263 11.598 8.81263 12.25V15C8.81263 15.652 9.34815 16.1875 10.0001 16.1875Z" stroke="#596780" stroke-width="2"/>
</svg>
