<svg width="760" height="760" viewBox="0 0 760 760" fill="none" xmlns="http://www.w3.org/2000/svg">
<path d="M734.875 294.68C726.661 193.411 722.554 142.776 703.438 110.017C648.705 16.2159 489.572 -6.0937 389.067 2.46149C254.516 13.9118 100.59 91.2609 32.8342 240.603C-28.7057 376.247 -0.32931 529.787 92.398 630.227C262.382 814.348 613.02 781.474 698.675 660.658C732.858 612.442 735.322 535.429 738.944 422.3C740.684 367.843 737.287 324.447 734.875 294.68Z" fill="#F4F7FA"/>
<path d="M670.398 62.7352C661.699 55.5381 648.503 51.6183 637.348 50.8268C558.278 45.2236 546.738 210.502 558.858 247.439C570.978 284.376 563.125 296.504 500.85 315.829C438.576 335.154 468.451 372.362 476.041 394.121C483.631 415.881 498.663 434.262 453.265 455.884C407.868 477.505 423.645 490.901 423.645 490.901C423.645 490.901 507.364 576.537 502.74 549.12C498.115 521.704 506.494 480.305 581.555 477.158C613.887 475.802 663.396 460.381 674.358 425.761C676.912 417.7 678.688 405.387 676.747 397.044C674.052 385.469 666.457 376.35 662.239 365.455C652.409 340.069 677.064 321.478 691.252 304.509C698.661 295.65 706.064 286.566 711.735 276.466C723.513 255.495 719.102 233.007 706.278 213.676C700.127 204.408 691.583 194.573 688.899 183.516C686.018 171.64 688.53 155.414 689.214 143.196C689.75 133.614 690.664 124.069 690.124 114.462C689.127 96.5981 684.941 74.7683 670.398 62.7352Z" fill="url(#paint0_linear_138_1554)"/>
<g opacity="0.8">
<g opacity="0.8">
<path opacity="0.8" d="M417.062 538.966C416.52 539.161 415.904 538.931 415.631 538.408C415.332 537.836 415.552 537.128 416.124 536.83C416.476 536.646 451.722 518.107 491.039 487.573C527.268 459.438 574.465 415.076 593.574 363.503C609.535 320.432 624.089 249.225 633.509 168.146C641.955 95.4408 643.289 41.6699 639.7 31.6889C639.481 31.0816 639.798 30.4121 640.405 30.1925C641.012 29.9729 641.682 30.2901 641.901 30.8973C646.1 42.5753 643.436 102.979 635.835 168.417C626.396 249.675 611.793 321.077 595.769 364.317C576.463 416.418 528.925 461.121 492.443 489.446C452.963 520.099 417.563 538.717 417.211 538.901C417.159 538.925 417.111 538.947 417.062 538.966Z" fill="white"/>
</g>
<g opacity="0.8">
<path opacity="0.8" d="M633.382 182.24C632.777 182.457 632.162 182.289 631.939 181.684C631.647 180.885 602.17 101.581 564.159 83.6766C563.574 83.4028 563.338 82.7414 563.612 82.1559C563.888 81.5703 564.59 81.3399 565.173 81.6137C604.054 99.9277 632.918 177.567 634.13 180.871C634.352 181.478 633.994 182.021 633.387 182.237C633.384 182.24 633.382 182.24 633.382 182.24Z" fill="white"/>
</g>
<g opacity="0.8">
<path opacity="0.8" d="M619.005 274.207C618.555 274.37 618.029 274.243 617.706 273.849C617.297 273.351 617.368 272.613 617.866 272.204C618.083 272.025 639.786 254.223 666.563 239.284C702.743 219.1 730.472 213.464 748.975 222.537C749.556 222.822 749.794 223.521 749.509 224.101C749.225 224.682 748.525 224.92 747.945 224.635C705.37 203.763 620.206 273.302 619.352 274.007C619.246 274.096 619.127 274.164 619.005 274.207Z" fill="white"/>
</g>
<g opacity="0.8">
<path opacity="0.8" d="M524.521 462.192C524.401 462.236 524.277 462.257 524.144 462.26C523.499 462.271 522.967 461.756 522.956 461.108C522.951 460.769 522.349 426.743 515.228 390.891C508.698 358.02 495.214 316.846 468.063 307.358C467.453 307.144 467.131 306.477 467.345 305.87C467.556 305.26 468.226 304.938 468.833 305.152C491.474 313.062 507.855 341.766 517.527 390.468C524.686 426.524 525.288 460.731 525.293 461.073C525.304 461.588 524.979 462.027 524.521 462.192Z" fill="white"/>
</g>
<g opacity="0.8">
<path opacity="0.8" d="M572.835 407.22C572.361 407.391 571.813 407.239 571.499 406.813C571.114 406.293 571.225 405.561 571.743 405.179C575.508 402.395 664.323 337.1 698.959 343.335C699.596 343.449 700.016 344.059 699.902 344.693C699.788 345.33 699.181 345.753 698.544 345.637C664.89 339.578 574.047 406.382 573.133 407.057C573.041 407.13 572.938 407.182 572.835 407.22Z" fill="white"/>
</g>
</g>
<path d="M739.796 306.172C734.046 296.456 722.954 288.302 712.726 283.783C640.213 251.756 573.43 403.38 572.335 442.239C571.24 481.098 559.746 489.853 494.609 486.966C429.47 484.08 444.991 529.203 444.772 552.247C444.552 575.292 452.476 597.674 402.44 602.659C352.405 607.645 362.717 625.587 362.717 625.587C362.717 625.587 412.522 734.5 417.447 707.135C422.373 679.77 444.265 643.649 515.962 666.089C546.843 675.753 598.651 677.994 620.682 649.127C625.813 642.405 631.65 631.421 632.644 622.912C634.024 611.109 629.964 599.957 629.679 588.279C629.017 561.063 658.511 551.911 677.603 540.745C687.57 534.917 697.611 528.872 706.367 521.288C724.545 505.541 728.007 482.887 722.479 460.358C719.828 449.555 715.114 437.408 716.331 426.096C717.638 413.946 725.494 399.525 730.27 388.259C734.016 379.425 738.107 370.75 740.85 361.528C745.96 344.372 749.411 322.415 739.796 306.172Z" fill="url(#paint1_linear_138_1554)"/>
<g opacity="0.8">
<g opacity="0.8">
<path opacity="0.8" d="M340.257 668.585C339.682 668.585 339.181 668.159 339.1 667.574C339.013 666.934 339.46 666.343 340.1 666.256C340.493 666.202 379.932 660.683 427.262 645.253C470.873 631.038 530.298 605.261 565.731 563.198C595.324 528.067 633.115 465.987 669.412 392.878C701.96 327.321 721.41 277.171 721.41 266.564C721.41 265.919 721.933 265.396 722.579 265.396C723.224 265.396 723.747 265.919 723.747 266.564C723.747 278.974 700.8 334.913 671.505 393.919C635.126 467.188 597.225 529.438 567.517 564.705C531.721 607.199 471.86 633.179 427.945 647.49C380.423 662.976 340.81 668.517 340.414 668.571C340.366 668.582 340.311 668.585 340.257 668.585Z" fill="white"/>
</g>
<g opacity="0.8">
<path opacity="0.8" d="M664.526 406.34C663.884 406.34 663.36 405.852 663.358 405.21C663.352 404.358 662.45 319.698 632.74 289.988C632.281 289.533 632.281 288.798 632.74 288.343C633.195 287.887 633.935 287.89 634.393 288.346C664.784 318.736 665.673 401.675 665.697 405.193C665.703 405.838 665.182 406.34 664.534 406.34C664.529 406.34 664.526 406.34 664.526 406.34Z" fill="white"/>
</g>
<g opacity="0.8">
<path opacity="0.8" d="M619.879 487.779C619.399 487.779 618.949 487.481 618.778 487.004C618.562 486.397 618.876 485.727 619.486 485.507C619.749 485.413 646.195 476.004 676.45 471.008C717.326 464.255 745.325 468.337 759.671 483.136C760.121 483.599 760.107 484.339 759.644 484.789C759.18 485.239 758.44 485.226 757.99 484.762C724.989 450.715 621.318 487.335 620.275 487.709C620.142 487.757 620.009 487.779 619.879 487.779Z" fill="white"/>
</g>
<g opacity="0.8">
<path opacity="0.8" d="M467.358 632.703C467.233 632.703 467.106 632.681 466.978 632.641C466.368 632.432 466.04 631.768 466.252 631.155C466.36 630.832 477.309 598.612 482.739 562.464C487.716 529.322 488.96 486.015 466.62 467.899C466.119 467.492 466.043 466.755 466.45 466.253C466.856 465.752 467.594 465.673 468.095 466.083C486.723 481.187 492.427 513.743 485.046 562.841C479.583 599.192 468.575 631.586 468.464 631.911C468.298 632.397 467.843 632.703 467.358 632.703Z" fill="white"/>
</g>
<g opacity="0.8">
<path opacity="0.8" d="M531.421 597.322C530.917 597.322 530.453 596.994 530.302 596.49C530.115 595.872 530.467 595.218 531.085 595.034C535.569 593.689 641.24 562.299 671.722 579.886C672.281 580.209 672.473 580.924 672.151 581.483C671.828 582.041 671.113 582.234 670.554 581.911C640.934 564.822 532.844 596.948 531.757 597.273C531.646 597.306 531.532 597.322 531.421 597.322Z" fill="white"/>
</g>
</g>
<path d="M496.724 33.0254L495.89 39.0054C493.117 39.1328 490.389 39.4906 487.736 40.087L485.475 34.5082C484.859 32.9874 483.116 32.2637 481.585 32.8953L471.997 36.8449C470.463 37.4765 469.714 39.2276 470.327 40.7511L472.599 46.4003C470.276 47.8804 468.08 49.5557 466.036 51.4098L461.222 47.6744C459.92 46.666 458.034 46.9154 457.006 48.2328L450.566 56.4736C449.533 57.7937 449.752 59.6858 451.053 60.6969L455.887 64.4541C454.599 66.8721 453.518 69.4256 452.645 72.0903L446.51 71.2852C444.862 71.0683 443.328 72.2367 443.084 73.8957L441.541 84.2888C441.295 85.9532 442.433 87.4821 444.084 87.6989L450.238 88.5067C450.311 91.3124 450.617 94.0719 451.162 96.7583L445.388 99.1655C443.832 99.8133 443.068 101.605 443.68 103.164L447.527 112.939C448.142 114.506 449.907 115.246 451.468 114.592L457.245 112.174C458.698 114.538 460.354 116.766 462.192 118.838L458.343 123.836C457.302 125.189 457.524 127.124 458.841 128.16L467.093 134.633C468.413 135.669 470.33 135.408 471.368 134.05L475.171 129.084C477.6 130.377 480.17 131.453 482.851 132.313L481.986 138.51C481.75 140.207 482.908 141.76 484.572 141.977L494.99 143.343C496.657 143.562 498.194 142.362 498.427 140.665L499.267 134.514C502.1 134.392 504.884 134.026 507.592 133.416L509.877 139.098C510.511 140.675 512.287 141.421 513.843 140.762L523.558 136.645C525.112 135.986 525.852 134.178 525.215 132.606L522.93 126.964C525.301 125.433 527.535 123.695 529.606 121.773L534.355 125.465C535.684 126.498 537.587 126.238 538.606 124.885L544.968 116.449C545.985 115.102 545.733 113.18 544.407 112.153L539.701 108.504C540.983 106.018 542.049 103.392 542.894 100.656L548.777 101.429C550.428 101.646 551.94 100.467 552.154 98.7968L553.491 88.3766C553.705 86.7149 552.542 85.1914 550.894 84.9746L545.028 84.2047C544.906 81.3638 544.548 78.5772 543.946 75.8691L549.387 73.5921C550.916 72.9523 551.639 71.1849 551.005 69.6452L547.031 60.0382C546.397 58.5039 544.646 57.7774 543.117 58.4145L537.644 60.6969C536.153 58.3575 534.467 56.151 532.593 54.1098L536.21 49.3903C537.215 48.0756 536.969 46.197 535.662 45.1913L527.489 38.9105C526.182 37.9075 524.309 38.1542 523.301 39.4635L519.663 44.1883C517.25 42.936 514.702 41.895 512.043 41.071L512.854 35.1371C513.076 33.5052 511.935 32.0061 510.3 31.792L500.089 30.4529C498.462 30.2441 496.952 31.3908 496.724 33.0254ZM460.723 81.4641C463.675 60.9274 482.523 46.5304 502.84 49.1951C523.157 51.8598 537.427 70.6021 534.697 91.166C531.951 111.857 513.062 126.536 492.523 123.844C471.983 121.15 457.755 102.126 460.723 81.4641Z" fill="#D8DEE8"/>
<path d="M340.145 29.7829L338.855 39.0294C334.569 39.2245 330.351 39.7775 326.247 40.6992L322.753 32.0735C321.799 29.7206 319.107 28.6037 316.741 29.5796L301.915 35.687C299.543 36.6656 298.386 39.3682 299.335 41.7293L302.848 50.4634C299.256 52.7513 295.86 55.3401 292.701 58.2108L285.247 52.4341C283.238 50.8754 280.319 51.2631 278.73 53.2961L268.771 66.0368C267.174 68.078 267.513 71.0029 269.524 72.567L276.998 78.3789C275.008 82.117 273.333 86.0666 271.983 90.1843L262.498 88.94C259.953 88.6066 257.581 90.412 257.199 92.9764L254.816 109.049C254.434 111.624 256.196 113.985 258.749 114.318L268.261 115.565C268.375 119.902 268.847 124.172 269.692 128.325L260.766 132.047C258.359 133.05 257.177 135.817 258.126 138.23L264.073 153.343C265.025 155.763 267.754 156.91 270.167 155.899L279.099 152.161C281.343 155.815 283.905 159.26 286.749 162.462L280.798 170.19C279.188 172.283 279.533 175.275 281.571 176.875L294.331 186.883C296.372 188.485 299.335 188.081 300.942 185.983L306.822 178.306C310.576 180.307 314.553 181.971 318.698 183.299L317.359 192.882C316.993 195.506 318.782 197.908 321.36 198.244L337.467 200.355C340.042 200.694 342.422 198.837 342.78 196.213L344.081 186.704C348.462 186.517 352.767 185.95 356.952 185.007L360.484 193.793C361.466 196.232 364.212 197.384 366.616 196.365L381.639 190C384.038 188.984 385.185 186.186 384.198 183.752L380.663 175.029C384.331 172.662 387.784 169.973 390.989 167.002L398.329 172.711C400.381 174.308 403.323 173.904 404.9 171.816L414.738 158.775C416.307 156.693 415.92 153.719 413.87 152.131L406.594 146.492C408.579 142.646 410.224 138.585 411.531 134.359L420.628 135.552C423.182 135.888 425.521 134.064 425.852 131.483L427.917 115.37C428.248 112.798 426.448 110.445 423.903 110.111L414.833 108.921C414.645 104.53 414.092 100.22 413.16 96.0341L421.574 92.5128C423.941 91.5234 425.06 88.791 424.074 86.4109L417.928 71.5559C416.947 69.184 414.239 68.0617 411.878 69.0457L403.417 72.5724C401.113 68.9535 398.503 65.5434 395.61 62.3908L401.2 55.0934C402.756 53.063 402.377 50.1571 400.352 48.6011L387.714 38.8911C385.694 37.3405 382.797 37.7228 381.238 39.7477L375.61 47.0532C371.878 45.1177 367.939 43.5075 363.829 42.2308L365.084 33.0548C365.429 30.5311 363.661 28.2161 361.138 27.8854L345.347 25.8143C342.829 25.4836 340.498 27.2592 340.145 29.7829ZM284.48 104.679C289.042 72.9248 318.185 50.664 349.598 54.7843C381.01 58.9047 403.073 87.8828 398.855 119.68C394.61 151.67 365.407 174.37 333.65 170.204C301.891 166.04 279.888 136.622 284.48 104.679Z" fill="#D8DEE8"/>
<path d="M325.038 119.319L255.978 693.336C254.943 701.943 260.874 709.657 269.185 710.481L556.83 742.062C574.45 743.157 584.098 734.155 585.188 725.003L657.693 114.727C658.774 105.627 650.13 97.3839 632.434 97.3839L342.173 103.497C333.766 103.64 326.068 110.759 325.038 119.319Z" fill="url(#paint2_linear_138_1554)"/>
<path d="M312.091 118.333L242.652 695.22C241.611 703.87 247.564 711.626 255.903 712.455L554.109 742.146C563.458 743.076 572.027 736.313 573.12 727.115L646.031 113.687C647.118 104.538 640.252 97.1863 630.799 97.3462L329.286 102.434C320.855 102.573 313.127 109.729 312.091 118.333Z" fill="url(#paint3_linear_138_1554)"/>
<path d="M317.751 150.152L253.39 685.041C252.416 693.122 257.992 700.354 265.797 701.113L546.25 728.375C554.941 729.221 562.905 722.908 563.924 714.344L631.306 147.68C632.32 139.162 625.944 132.269 617.164 132.364L333.832 135.381C325.946 135.462 318.719 142.112 317.751 150.152Z" fill="#D8DEE8"/>
<path d="M468.145 117.934C467.777 121.006 469.98 123.464 473.071 123.424C476.164 123.386 478.972 120.859 479.341 117.783C479.709 114.706 477.497 112.247 474.404 112.293C471.311 112.339 468.511 114.866 468.145 117.934Z" fill="url(#paint4_linear_138_1554)"/>
<path d="M366.238 509.204C423.652 403.053 509.424 371.278 535.247 261.876C549.204 202.741 539.695 146.14 523.677 99.1517L630.804 97.3436C640.256 97.1836 647.123 104.538 646.036 113.684L573.124 727.112C572.032 736.313 563.463 743.076 554.114 742.143L319.694 718.804C317.957 623.688 340.643 556.521 366.238 509.204Z" fill="white"/>
<path d="M28.9717 179.209C28.9717 122.804 78.1749 77.0866 137.221 77.092C194.521 77.0974 239.742 120.41 239.742 173.831C239.742 227.252 194.521 272.872 137.221 275.802C78.1722 278.822 28.9717 235.615 28.9717 179.209Z" fill="url(#paint5_linear_138_1554)"/>
<path d="M35.3364 174.712C35.3364 118.306 83.1164 72.5889 140.452 72.5943C196.093 72.5997 240.008 115.912 240.008 169.334C240.008 222.755 196.093 268.374 140.452 271.305C83.1137 274.324 35.3364 231.115 35.3364 174.712Z" fill="url(#paint6_linear_138_1554)"/>
<g opacity="0.5">
<path opacity="0.5" d="M51.6943 174.281C51.6943 126.891 91.8354 88.4793 140.008 88.4874C186.756 88.4928 223.652 124.882 223.652 169.764C223.652 214.647 186.758 252.974 140.008 255.436C91.8354 257.973 51.6943 221.67 51.6943 174.281Z" fill="white"/>
</g>
<path opacity="0.5" d="M136.693 95.7686C183.44 95.774 220.336 132.163 220.336 177.046C220.336 187.718 218.23 198.011 214.421 207.547C220.32 196.064 223.654 183.213 223.654 169.764C223.654 124.882 186.761 88.4928 140.011 88.4874C102.857 88.4847 70.5013 111.342 57.6333 143.535C72.2037 115.232 102.407 95.7658 136.693 95.7686Z" fill="white"/>
<path d="M100.066 162.682V204.043C100.066 216 110.126 225.433 122.498 225.111L153.175 224.311C165.398 223.991 175.276 214.143 175.276 202.31V161.386L100.066 162.682ZM128.318 205.441L134.018 188.166C131.576 186.905 129.922 184.422 129.922 181.53C129.922 177.285 133.484 173.774 137.87 173.693C142.251 173.609 145.799 176.976 145.799 181.213C145.799 184.1 144.151 186.645 141.717 188.006L147.396 204.997L128.318 205.441Z" fill="white"/>
<path d="M166.556 157.799C163.3 157.854 160.66 155.335 160.66 152.172C160.66 140.014 150.454 130.255 137.868 130.418C125.238 130.581 114.929 140.667 114.929 152.901C114.929 156.084 112.254 158.708 108.949 158.765C105.642 158.819 102.958 156.281 102.958 153.094C102.958 134.473 118.662 119.147 137.871 118.932C156.976 118.718 172.441 133.546 172.441 151.988C172.441 155.143 169.809 157.745 166.556 157.799Z" fill="white"/>
<path d="M237.611 393.709C237.611 393.709 235.523 385.886 237.004 383.885C238.481 381.885 247.521 373.888 246.654 376.496C245.784 379.104 244.48 380.841 244.48 380.841C244.48 380.841 249.348 383.102 246.217 386.49C243.089 389.882 242.043 390.662 241.869 393.707C241.699 396.751 239.698 397.794 237.611 393.709Z" fill="url(#paint7_linear_138_1554)"/>
<path d="M150.771 731.409C150.771 731.409 149.665 738.175 149.806 740.582C149.947 742.989 176.67 744.22 176.938 742.417C177.206 740.614 172.522 737.744 169.223 736.733C165.924 735.719 156.268 733.019 156.268 733.019L150.771 731.409Z" fill="url(#paint8_linear_138_1554)"/>
<path d="M157.256 724.664L156.405 733.079C156.405 733.079 153.301 735.131 150.566 733.548L149.197 724.391L157.256 724.664Z" fill="url(#paint9_linear_138_1554)"/>
<path d="M103.092 742.377C103.092 742.377 101.986 749.143 102.127 751.55C102.268 753.957 128.99 755.188 129.259 753.385C129.53 751.583 124.843 748.712 121.544 747.701C118.245 746.69 108.589 743.987 108.589 743.987L103.092 742.377Z" fill="url(#paint10_linear_138_1554)"/>
<path d="M109.58 735.632L108.728 744.046C108.728 744.046 105.625 746.098 102.889 744.515L101.521 735.358L109.58 735.632Z" fill="url(#paint11_linear_138_1554)"/>
<path d="M152.409 505.021C155.496 511.283 158.586 517.545 161.674 523.807C164.157 559.543 165.393 598.405 164.599 639.964C164.008 670.883 162.357 700.173 159.983 727.665C155.794 727.473 151.606 727.28 147.418 727.088C141.362 715.068 134.214 696.86 133.555 674.382C132.869 650.937 139.977 647.822 139.527 625.374C138.942 596.277 126.74 588.513 120.24 553.514C117.754 540.129 116.082 522.647 118.069 501.438C129.516 502.633 140.961 503.829 152.409 505.021Z" fill="url(#paint12_linear_138_1554)"/>
<path opacity="0.3" d="M118.071 501.438C124.252 502.083 130.432 502.728 136.616 503.373C147.743 522.736 150.85 542.888 148.895 551.804C146.133 564.417 138.825 568.456 139.229 581.118C139.627 593.647 147.009 596.898 151.69 611.663C154.932 621.888 154.076 631.289 152.232 649.674C148.519 686.705 139.576 698.031 147.066 710.173C149.194 713.623 153.029 717.73 160.544 720.867C160.359 723.138 160.178 725.415 159.985 727.662C155.797 727.473 151.609 727.278 147.421 727.088C141.365 715.068 134.217 696.86 133.558 674.382C132.872 650.937 139.98 647.822 139.53 625.374C138.944 596.277 126.743 588.516 120.243 553.517C117.757 540.131 116.082 522.65 118.071 501.438Z" fill="url(#paint13_linear_138_1554)"/>
<path d="M135.788 516.295C129.99 547.914 124.869 581.752 120.874 617.64C116.048 660.972 113.473 701.823 112.462 739.75C107.865 739.88 103.27 740.01 98.6724 740.14C80.5591 704.306 79.4531 680.012 82.0636 664.195C83.0692 658.101 85.8044 646.15 86.4279 628.286C86.8616 615.835 86.0674 606.358 85.0752 594.967C82.9012 569.993 80.2609 564.542 79.8814 545.439C79.5235 527.51 79.4504 518.44 84.5683 513.146C98.0517 499.193 133.129 515.059 135.788 516.295Z" fill="url(#paint14_linear_138_1554)"/>
<path d="M235.207 392.503C238.264 392.289 241.319 392.078 244.377 391.863C251.588 421.007 246.416 449.275 230.14 459.671C204.71 475.914 157.448 445.312 147.207 411.988C142.712 397.361 143.734 376.255 152.721 372.153C155.215 371.015 159.085 370.839 167.47 375.545C192.509 389.603 193.168 416.174 205.898 418.424C211.552 419.427 220.693 415.819 235.207 392.503Z" fill="url(#paint15_linear_138_1554)"/>
<path d="M165.193 530.218C169.598 522.91 164.065 515.862 162.807 502.018C161.381 486.325 167.426 483.712 173.404 457.708C177.38 440.413 181.194 423.81 176.64 404.373C174.458 395.059 170.755 379.261 157.679 371.63C150.931 367.691 141.717 368.087 123.569 369.036C101.124 370.209 89.9038 370.795 81.533 375.203C80.3077 375.848 54.8482 389.697 53.0943 412.272C51.3106 435.249 76.331 438.337 79.668 468.976C81.167 482.731 78.4969 503.886 76.7647 517.605C75.103 530.779 73.9564 534.151 76.5587 538.142C82.826 547.757 102.01 545.016 140.378 539.538C155.429 537.385 161.905 535.672 165.193 530.218Z" fill="url(#paint16_linear_138_1554)"/>
<path d="M106.812 464.046C105.188 470.017 99.3548 474.477 95.2941 489.004C94.4185 492.14 88.1702 514.474 96.2727 519.972C100.951 523.146 105.153 517.131 116.511 516.345C136.191 514.984 145.568 531.525 158.425 527.006C160.656 526.22 163.6 524.55 166.541 520.712C167.127 524.171 167.027 527.177 165.194 530.221C161.909 535.675 155.43 537.388 140.38 539.538C102.011 545.016 82.8273 547.757 76.56 538.142C73.9603 534.154 75.1043 530.779 76.766 517.605C78.4982 503.883 81.1683 482.728 79.6692 468.977C76.3323 438.337 51.3092 435.249 53.0955 412.273C53.5726 406.13 55.8307 400.662 58.8532 395.9C90.5936 408.743 111.911 445.279 106.812 464.046Z" fill="url(#paint17_linear_138_1554)"/>
<path d="M66.7246 509.239L73.0759 513.295C74.2172 511.977 76.8575 509.321 80.9778 508.415C85.6214 507.393 90.9535 508.86 91.0755 510.34C91.1758 511.527 87.9282 512.725 87.4268 512.91C83.3742 514.406 80.3679 513.162 78.7306 514.791C78.1505 515.366 77.4294 516.439 75.7677 517.431C75.3313 517.691 74.8759 517.922 74.6346 518.017C71.9293 519.069 67.2912 514.36 66.8927 513.948L66.7246 509.239Z" fill="url(#paint18_linear_138_1554)"/>
<path d="M85.4851 425.948C90.0799 414.945 93.2623 398.098 86.0056 373.08C38.193 391.92 13.8097 436.582 23.3299 471.985C31.1776 501.172 59.7328 515.387 66.1031 518.38C67.5859 515.005 69.0687 511.633 70.5488 508.261C63.1674 500.042 54.848 487.886 56.0245 474.015C57.6564 454.785 76.1845 448.222 85.4851 425.948Z" fill="url(#paint19_linear_138_1554)"/>
<path d="M122.392 346.4C122.392 346.4 122.015 354.763 119.418 361.028C117.071 366.688 104.731 370.247 102.229 371.51C99.7272 372.774 106.916 376.468 114.135 377.192C121.354 377.919 141.966 376.279 145.683 373.543C149.399 370.808 142.696 371.014 137.545 369.122C132.392 367.23 129.413 357.154 130.324 352.581C131.234 348.005 122.392 346.4 122.392 346.4Z" fill="url(#paint20_linear_138_1554)"/>
<path d="M133.81 343.367C137.556 339.686 138.079 339.258 138.486 337.987C140.123 332.882 136.163 325.888 130.969 324.167C130.698 324.078 127.214 322.963 125.886 324.473C124.756 325.756 126.417 327.528 125.629 330.003C124.888 332.318 122.883 332.492 119.161 335.528C116.095 338.027 114.192 339.583 113.753 341.771C112.847 346.279 118.304 352.812 123.135 352.636C124.872 352.57 125.347 351.684 133.81 343.367Z" fill="url(#paint21_linear_138_1554)"/>
<path d="M123.61 353.332C123.61 353.332 127.592 357.84 133.656 356.349C139.086 355.015 137.7 342.551 133.726 340.562C132.401 339.898 129.991 339.952 128.18 340.825C127.109 341.34 126.811 341.876 125.047 342.684C123.42 343.43 122.902 343.327 122.466 343.853C121.918 344.509 121.682 345.924 123.398 349.334C122.162 348.458 120.831 348.274 120.015 348.854C119.885 348.946 119.554 349.271 119.411 349.697C118.893 351.239 120.498 352.809 123.61 353.332Z" fill="url(#paint22_linear_138_1554)"/>
<path d="M577.733 184.573L579.135 192.139L550.284 192.207L299.917 192.8C293.476 192.816 287.553 198.14 286.67 204.692L226.903 604.132C226.014 610.744 236.304 620.836 242.706 621.33L353.78 629.866V629.73L519.929 642.476C519.931 642.476 519.934 642.476 519.937 642.476L520.338 642.644C527.432 643.192 533.941 638.044 534.862 631.061C534.862 631.059 534.862 631.091 534.865 631.088L590.837 204.616C591.748 197.699 584.868 184.554 577.733 184.573Z" fill="url(#paint23_linear_138_1554)"/>
<path d="M529.202 622.75C528.286 629.736 521.78 634.957 514.686 634.412L236.767 613.073C230.367 612.582 225.913 606.825 226.802 600.213L281.134 196.525C282.015 189.973 287.938 184.649 294.374 184.63L573.862 183.861C580.994 183.842 586.053 189.434 585.147 196.352L529.202 622.75Z" fill="url(#paint24_linear_138_1554)"/>
<path d="M532.895 400.745C532.44 404.204 529.208 406.785 525.679 406.655L281.078 397.728C277.849 397.612 275.578 394.952 276.022 391.648L280.831 356.004C281.276 352.702 284.222 350.468 287.454 350.558L532.269 357.357C535.804 357.454 538.306 359.951 537.853 363.407L532.895 400.745Z" fill="white"/>
<path d="M523.423 473.169C522.968 476.636 519.734 479.594 516.204 479.418L271.788 467.344C268.562 467.184 266.318 464.096 266.762 460.789L271.609 424.457C272.054 421.152 275.027 418.32 278.256 418.45L522.821 428.314C526.351 428.458 528.848 431.651 528.392 435.113L523.423 473.169Z" fill="white"/>
<path opacity="0.1" d="M537.873 363.264C537.292 363.077 536.669 362.974 536.005 362.955L291.184 356.159C287.956 356.067 285.007 358.306 284.567 361.599L279.75 397.243C279.739 397.335 279.731 397.422 279.723 397.514C277.24 396.815 275.644 394.462 276.018 391.643L280.835 355.999C281.274 352.705 284.223 350.463 287.452 350.558L532.272 357.354C535.745 357.457 538.236 359.875 537.873 363.264Z" fill="url(#paint25_linear_138_1554)"/>
<path opacity="0.1" d="M528.445 434.31C527.857 434.077 527.222 433.936 526.55 433.909L281.99 424.042C278.761 423.912 275.782 426.75 275.343 430.054L270.488 466.389C270.461 466.622 270.442 466.847 270.442 467.081C267.959 466.278 266.381 463.608 266.755 460.789L271.61 424.454C272.05 421.149 275.026 418.311 278.257 418.441L522.817 428.308C526.084 428.449 528.453 431.174 528.445 434.31Z" fill="url(#paint26_linear_138_1554)"/>
<path d="M458.419 531.872C459.141 526.404 455.275 521.367 449.78 521.05L323.255 513.785C318.015 513.484 313.176 517.898 312.464 523.221L307.243 562.576C306.53 567.908 310.165 573.01 315.402 573.368L441.862 582.021C447.354 582.398 452.412 577.759 453.136 572.284L458.419 531.872Z" fill="url(#paint27_linear_138_1554)"/>
<path d="M467.975 266.722C466.308 279.303 459.846 290.659 450.656 299.01C440.754 308.018 427.709 313.499 414.145 313.237C400.648 312.976 389.287 307.08 381.992 297.872C375.264 289.384 371.968 278.075 373.619 265.706C377.053 239.973 400.697 219.17 426.641 219.232C452.833 219.289 471.44 240.55 467.975 266.722Z" fill="url(#paint28_linear_138_1554)"/>
<path d="M442.746 252.423C441.25 263.695 430.846 272.727 419.55 272.591C408.3 272.456 400.423 263.274 401.911 252.084C403.402 240.897 413.7 231.873 424.955 231.924C436.259 231.976 444.242 241.152 442.746 252.423Z" fill="white"/>
<path d="M450.658 299.011C440.755 308.019 427.711 313.5 414.147 313.237C400.65 312.977 389.289 307.081 381.994 297.872C390.343 286.24 404.114 278.504 418.739 278.694C433.442 278.883 445.293 287.032 450.658 299.011Z" fill="white"/>
<path opacity="0.4" d="M585.145 196.351L529.202 622.749C528.286 629.732 521.366 634.923 514.274 634.379L347.353 621.562C339.424 613.443 332.894 603.701 328.234 592.009C325.946 586.276 324.271 580.09 323.157 573.584C320.058 555.579 321.259 535.113 325.778 515.023C329.253 499.558 334.702 484.291 341.677 470.515C347.256 459.501 353.816 449.431 361.143 440.968C366.418 434.877 372.124 428.959 378.142 423.155C385.399 416.151 393.111 409.314 401.067 402.54C419.606 386.744 439.457 371.301 457.836 354.993C500.243 317.373 534.648 275.337 526.37 215.359C526.104 213.469 523.521 199.002 520.219 184.006L573.448 183.86C580.577 183.841 586.053 189.436 585.145 196.351Z" fill="#7108aa"/>
<defs>
<linearGradient id="paint0_linear_138_1554" x1="508.409" y1="548.25" x2="706.4" y2="13.5168" gradientUnits="userSpaceOnUse">
<stop offset="0.00359712" stop-color="#E38DDD"/>
<stop offset="1" stop-color="#9571F6"/>
</linearGradient>
<linearGradient id="paint1_linear_138_1554" x1="732" y1="229" x2="569.5" y2="670" gradientUnits="userSpaceOnUse">
<stop stop-color="#848587"/>
<stop offset="0.994792" stop-color="#7108aa"/>
</linearGradient>
<linearGradient id="paint2_linear_138_1554" x1="460.394" y1="404.923" x2="573.753" y2="417.29" gradientUnits="userSpaceOnUse">
<stop stop-color="#444B8C"/>
<stop offset="0.9964" stop-color="#26264F"/>
</linearGradient>
<linearGradient id="paint3_linear_138_1554" x1="360.514" y1="119.179" x2="640.818" y2="1073.45" gradientUnits="userSpaceOnUse">
<stop stop-color="#444B8C"/>
<stop offset="0.9964" stop-color="#26264F"/>
</linearGradient>
<linearGradient id="paint4_linear_138_1554" x1="465.551" y1="95.6748" x2="794.984" y2="987.89" gradientUnits="userSpaceOnUse">
<stop stop-color="#FFC444"/>
<stop offset="0.9964" stop-color="#F36F56"/>
</linearGradient>
<linearGradient id="paint5_linear_138_1554" x1="-2412.61" y1="2578.15" x2="-2187.28" y2="2365.67" gradientUnits="userSpaceOnUse">
<stop stop-color="#311944"/>
<stop offset="1" stop-color="#893976"/>
</linearGradient>
<linearGradient id="paint6_linear_138_1554" x1="69.1867" y1="234.102" x2="249.754" y2="70.2416" gradientUnits="userSpaceOnUse">
<stop stop-color="#FF9085"/>
<stop offset="1" stop-color="#FB6FBB"/>
</linearGradient>
<linearGradient id="paint7_linear_138_1554" x1="252.135" y1="376.583" x2="216.353" y2="413.004" gradientUnits="userSpaceOnUse">
<stop stop-color="#FFC444"/>
<stop offset="0.9964" stop-color="#F36F56"/>
</linearGradient>
<linearGradient id="paint8_linear_138_1554" x1="163.441" y1="722.541" x2="163.742" y2="641.742" gradientUnits="userSpaceOnUse">
<stop stop-color="#AA80F9"/>
<stop offset="0.9964" stop-color="#6165D7"/>
</linearGradient>
<linearGradient id="paint9_linear_138_1554" x1="155.437" y1="748.506" x2="151.59" y2="706.754" gradientUnits="userSpaceOnUse">
<stop stop-color="#FFC444"/>
<stop offset="0.9964" stop-color="#F36F56"/>
</linearGradient>
<linearGradient id="paint10_linear_138_1554" x1="115.805" y1="722.364" x2="116.106" y2="641.564" gradientUnits="userSpaceOnUse">
<stop stop-color="#AA80F9"/>
<stop offset="0.9964" stop-color="#6165D7"/>
</linearGradient>
<linearGradient id="paint11_linear_138_1554" x1="107.159" y1="752.953" x2="103.312" y2="711.202" gradientUnits="userSpaceOnUse">
<stop stop-color="#FFC444"/>
<stop offset="0.9964" stop-color="#F36F56"/>
</linearGradient>
<linearGradient id="paint12_linear_138_1554" x1="153.976" y1="538.13" x2="124.36" y2="689.543" gradientUnits="userSpaceOnUse">
<stop stop-color="#311944"/>
<stop offset="1" stop-color="#893976"/>
</linearGradient>
<linearGradient id="paint13_linear_138_1554" x1="168.756" y1="612.17" x2="124.261" y2="615.736" gradientUnits="userSpaceOnUse">
<stop stop-color="#311944"/>
<stop offset="1" stop-color="#893976"/>
</linearGradient>
<linearGradient id="paint14_linear_138_1554" x1="144.145" y1="620.539" x2="76.5976" y2="625.953" gradientUnits="userSpaceOnUse">
<stop stop-color="#311944"/>
<stop offset="1" stop-color="#893976"/>
</linearGradient>
<linearGradient id="paint15_linear_138_1554" x1="197.499" y1="397.593" x2="147.525" y2="718.541" gradientUnits="userSpaceOnUse">
<stop stop-color="#AA80F9"/>
<stop offset="0.9964" stop-color="#6165D7"/>
</linearGradient>
<linearGradient id="paint16_linear_138_1554" x1="91.2119" y1="749.881" x2="67.0411" y2="1073.79" gradientUnits="userSpaceOnUse">
<stop stop-color="#AA80F9"/>
<stop offset="0.9964" stop-color="#6165D7"/>
</linearGradient>
<linearGradient id="paint17_linear_138_1554" x1="9.03386" y1="639.438" x2="142.436" y2="410.93" gradientUnits="userSpaceOnUse">
<stop stop-color="#AA80F9"/>
<stop offset="0.9964" stop-color="#6165D7"/>
</linearGradient>
<linearGradient id="paint18_linear_138_1554" x1="56.3251" y1="481.442" x2="84.4606" y2="519.449" gradientUnits="userSpaceOnUse">
<stop stop-color="#FFC444"/>
<stop offset="0.9964" stop-color="#F36F56"/>
</linearGradient>
<linearGradient id="paint19_linear_138_1554" x1="32.157" y1="745.474" x2="7.98616" y2="1069.39" gradientUnits="userSpaceOnUse">
<stop stop-color="#AA80F9"/>
<stop offset="0.9964" stop-color="#6165D7"/>
</linearGradient>
<linearGradient id="paint20_linear_138_1554" x1="136.224" y1="386.732" x2="109.138" y2="353.032" gradientUnits="userSpaceOnUse">
<stop stop-color="#FFC444"/>
<stop offset="0.9964" stop-color="#F36F56"/>
</linearGradient>
<linearGradient id="paint21_linear_138_1554" x1="115.628" y1="374.355" x2="129.984" y2="327.128" gradientUnits="userSpaceOnUse">
<stop stop-color="#444B8C"/>
<stop offset="0.9964" stop-color="#3E4177"/>
</linearGradient>
<linearGradient id="paint22_linear_138_1554" x1="152.24" y1="357.875" x2="111.86" y2="339.901" gradientUnits="userSpaceOnUse">
<stop stop-color="#FFC444"/>
<stop offset="0.9964" stop-color="#F36F56"/>
</linearGradient>
<linearGradient id="paint23_linear_138_1554" x1="226.85" y1="413.63" x2="590.92" y2="413.63" gradientUnits="userSpaceOnUse">
<stop stop-color="#311944"/>
<stop offset="1" stop-color="#893976"/>
</linearGradient>
<linearGradient id="paint24_linear_138_1554" x1="448.193" y1="1129.69" x2="404.782" y2="377.747" gradientUnits="userSpaceOnUse">
<stop offset="0.003597" stop-color="#848587"/>
<stop offset="1" stop-color="#FFC444"/>
</linearGradient>
<linearGradient id="paint25_linear_138_1554" x1="275.962" y1="374.037" x2="537.907" y2="374.037" gradientUnits="userSpaceOnUse">
<stop offset="0.003597" stop-color="#F36F56"/>
<stop offset="1" stop-color="#FFC444"/>
</linearGradient>
<linearGradient id="paint26_linear_138_1554" x1="266.703" y1="442.76" x2="528.445" y2="442.76" gradientUnits="userSpaceOnUse">
<stop offset="0.003597" stop-color="#F36F56"/>
<stop offset="1" stop-color="#FFC444"/>
</linearGradient>
<linearGradient id="paint27_linear_138_1554" x1="395.355" y1="468.134" x2="336.844" y2="839.18" gradientUnits="userSpaceOnUse">
<stop offset="0.003597" stop-color="#F36F56"/>
<stop offset="1" stop-color="#FFC444"/>
</linearGradient>
<linearGradient id="paint28_linear_138_1554" x1="414.602" y1="81.8078" x2="427.098" y2="453.911" gradientUnits="userSpaceOnUse">
<stop offset="0.003597" stop-color="#F36F56"/>
<stop offset="1" stop-color="#FFC444"/>
</linearGradient>
</defs>
</svg>
